<svg xmlns="http://www.w3.org/2000/svg" viewBox="0 0 48 48" width="34" height="36">
  <title>20-Art and Design</title>
  <g id="_20-Art_and_Design" data-name="20-Art and Design">
    <rect x="11" y="41" width="26" height="2"/>
    <path d="M29,6H19a1,1,0,0,1-1-1V1a1,1,0,0,1,1-1H29a1,1,0,0,1,1,1V5A1,1,0,0,1,29,6ZM20,4h8V2H20Z"/>
    <path d="M47,10H30V8H46V6H2V8H18v2H1A1,1,0,0,1,0,9V5A1,1,0,0,1,1,4H47a1,1,0,0,1,1,1V9A1,1,0,0,1,47,10Z"/>
    <path d="M41,48H37a1,1,0,0,1-1-1V36a1,1,0,0,1,1-1h7V12h2V35a2,2,0,0,1-2,2H42V47A1,1,0,0,1,41,48Zm-3-2h2V37H38Z"/>
    <path d="M11,48H7a1,1,0,0,1-1-1V37H4a2,2,0,0,1-2-2V12H4V35h7a1,1,0,0,1,1,1V47A1,1,0,0,1,11,48ZM8,46h2V37H8Z"/>
    <path d="M32,39H16a1,1,0,0,1-1-1V34a1,1,0,0,1,1-1H32a1,1,0,0,1,1,1v4A1,1,0,0,1,32,39ZM17,37H31V35H17Z"/>
    <rect x="11" y="35" width="5" height="2"/>
    <rect x="32" y="35" width="5" height="2"/>
    <path d="M26,24H16a1,1,0,0,1-1-1V13a1,1,0,0,1,1-1H26a1,1,0,0,1,1,1V23A1,1,0,0,1,26,24Zm-9-2h8V14H17Z"/>
    <path d="M26,30a7,7,0,1,1,7-7A7.008,7.008,0,0,1,26,30Zm0-12a5,5,0,1,0,5,5A5.006,5.006,0,0,0,26,18Z"/>
    <path d="M40,19H35a1,1,0,0,1-1-1V14H29V12h6a1,1,0,0,1,1,1v4h4Z"/>
    <path d="M19,30H13a1,1,0,0,1-1-1V27H9V25h4a1,1,0,0,1,1,1v2h5Z"/>
    <rect x="9" y="21" width="2" height="2"/>
    <rect x="38" y="21" width="2" height="2"/>
  </g>
</svg>
