<svg xmlns="http://www.w3.org/2000/svg" width="32" height="28" fill="#c9187e" xmlns:v="https://vecta.io/nano"><path d="M7.98 18.875V5.194H5.7a5.7 5.7 0 0 0-5.7 5.7v2.28a5.7 5.7 0 0 0 5.7 5.7l2.28.001zM20.956.725a1.14 1.14 0 0 0-1.243.239s-4.309 4.23-9.451 4.23v13.681c5.142 0 9.417 4.184 9.451 4.23a1.14 1.14 0 0 0 .585.309c.221.043.45.02.659-.066a1.14 1.14 0 0 0 .706-1.052V1.774a1.14 1.14 0 0 0-.707-1.049zm-9.795 20.499a5.88 5.88 0 0 0-.9-.068H5.7a7.14 7.14 0 0 1-1.493-.149L5.7 27.129a1.14 1.14 0 0 0 1.14.866h4.56a1.13 1.13 0 0 0 1.106-1.414l-1.345-5.357zm12.78-12.405v6.43a3.42 3.42 0 0 0 0-6.43zm4.562 4.355h2.28a1.14 1.14 0 1 0 0-2.28h-2.28a1.14 1.14 0 1 0 0 2.28zm-.003-4.56a1.06 1.06 0 0 0 .513-.125l2.28-1.14a1.14 1.14 0 0 0 .574-1.564 1.14 1.14 0 0 0-1.601-.465l-2.28 1.14a1.14 1.14 0 0 0 .513 2.155zm2.794 8.106l-2.28-1.14a1.14 1.14 0 0 0-1.606.462 1.14 1.14 0 0 0 .58 1.567l2.28 1.14a1.06 1.06 0 0 0 .513.125 1.14 1.14 0 0 0 .513-2.155v.001z"/></svg>