<svg xmlns="http://www.w3.org/2000/svg" width="30" height="34" fill="#9bb109" xmlns:v="https://vecta.io/nano"><path d="M.906 16.05v.94a.94.94 0 0 0 .682.9 55.35 55.35 0 0 0 13.413 1.915 55.35 55.35 0 0 0 13.413-1.915.94.94 0 0 0 .682-.9v-.94a.94.94 0 0 0-.94-.94H1.846a.94.94 0 0 0-.94.94zm25.371 7.517a.94.94 0 0 0 .94-.94v-2.491l-5.684 1.062c-.109 1.659-.844 3.214-2.057 4.35s-2.813 1.768-4.475 1.768-3.262-.632-4.475-1.768a6.54 6.54 0 0 1-2.057-4.35l-5.684-1.062v2.491a.94.94 0 0 0 .94.94H5.06a10.15 10.15 0 0 0 .925 2.213l-.948.948a.94.94 0 0 0 0 1.33l2.658 2.658a.94.94 0 0 0 1.329 0l.948-.948a10.15 10.15 0 0 0 2.213.925v1.4a.94.94 0 0 0 .94.94h3.755c.123 0 .246-.024.36-.071a.94.94 0 0 0 .58-.869v-1.4a10.15 10.15 0 0 0 2.213-.925l.948.948a.94.94 0 0 0 1.329 0l2.658-2.658a.94.94 0 0 0 0-1.33l-.948-.948a10.16 10.16 0 0 0 .925-2.213h1.332zM13.51 11.268a.94.94 0 0 1-1.242-.47L9.335 4.231a12.32 12.32 0 0 0-6.366 9h24.069a12.32 12.32 0 0 0-6.366-9l-2.933 6.567a.94.94 0 0 1-1.242.47.94.94 0 0 1-.469-1.242l3.247-7.263a.94.94 0 0 0 .088-.391c.001-.135-.027-.269-.082-.392a.93.93 0 0 0-.238-.322.95.95 0 0 0-.35-.195 14.1 14.1 0 0 0-7.374 0 .93.93 0 0 0-.35.195c-.101.09-.183.199-.238.322s-.083.257-.082.392a.94.94 0 0 0 .088.391l3.247 7.263a.94.94 0 0 1-.171 1.029.95.95 0 0 1-.298.213l-.001.001z"/></svg>