<svg xmlns="http://www.w3.org/2000/svg" width="40" height="34" fill="#6e1d7c" xmlns:v="https://vecta.io/nano"><path d="M3.324 26.435v6.255a.7.7 0 0 0 .7.7H8.86a.7.7 0 0 0 .7-.7v-11l-3.512 3.512a4.26 4.26 0 0 1-2.724 1.233zm8.641-4.828v11.084a.7.7 0 0 0 .7.7h4.836a.7.7 0 0 0 .7-.7v-6.525c-1.094-.019-2.137-.463-2.91-1.237l-3.326-3.322zm8.641 3.869v7.215a.7.7 0 0 0 .7.7h4.836a.7.7 0 0 0 .7-.7V19.379L21.3 24.921a4.15 4.15 0 0 1-.694.555zM35.01 11.197l-5.764 5.764V32.69a.7.7 0 0 0 .7.7h4.836a.7.7 0 0 0 .7-.7V11.633l-.365-.333-.107-.103zM38.968.986a1.35 1.35 0 0 0-1.023-.373h-.127L31.071.93c-.38-.021-.753.107-1.039.357a1.18 1.18 0 0 0-.246.365c-.109.241-.133.512-.069.768s.215.483.426.643l.563.571 1.181 1.181-13.6 13.613-6.113-6.113a1.95 1.95 0 0 0-.631-.422 1.94 1.94 0 0 0-.745-.148c-.256 0-.508.05-.745.148s-.45.242-.631.422l-8.145 8.134c-.181.18-.324.395-.422.631a1.94 1.94 0 0 0 0 1.49 1.95 1.95 0 0 0 .422.631l.365.365a1.94 1.94 0 0 0 1.376.571 1.94 1.94 0 0 0 .745-.148 1.95 1.95 0 0 0 .631-.422l6.4-6.4 6.113 6.115a1.95 1.95 0 0 0 2.759 0L35.012 7.931l1.736 1.728a1.33 1.33 0 0 0 .413.343c.16.085.335.135.515.149a1.15 1.15 0 0 0 .555-.151 1.51 1.51 0 0 0 .333-.246 1.61 1.61 0 0 0 .42-1.118l.206-4.384.1-2.2c.024-.19.008-.384-.047-.567a1.36 1.36 0 0 0-.275-.499z"/></svg>