<svg xmlns="http://www.w3.org/2000/svg" viewBox="0 0 32 32" width="34" height="36">
  <g id="finance">
    <path d="M8.62,11.15a.09.09,0,0,0,.08,0,.11.11,0,0,0,0-.08v-.64a.11.11,0,0,0,0-.08.09.09,0,0,0-.08,0H6.48a.14.14,0,0,0-.12.12v2.74a.09.09,0,0,0,0,.08.11.11,0,0,0,.08,0h.81a.1.1,0,0,0,.11-.11v-.8H8.53a.11.11,0,0,0,.08,0,.1.1,0,0,0,0-.08v-.64a.08.08,0,0,0,0-.08.09.09,0,0,0-.08,0H7.4v-.31Z"/>
    <path d="M9.22,10.27a.09.09,0,0,0-.08,0,.11.11,0,0,0,0,.08v2.74a.1.1,0,0,0,.11.11h.87a.13.13,0,0,0,.08,0,.11.11,0,0,0,0-.08V10.39a.11.11,0,0,0,0-.08.1.1,0,0,0-.08,0Z"/>
    <path d="M13.31,13.21a.11.11,0,0,0,0-.08V10.39a.11.11,0,0,0,0-.08.09.09,0,0,0-.08,0h-.77a.09.09,0,0,0-.08,0,.11.11,0,0,0,0,.08v1.16l-.72-1.18-.05-.06a.17.17,0,0,0-.13,0h-.67a.09.09,0,0,0-.08,0,.11.11,0,0,0,0,.08v2.74a.1.1,0,0,0,.11.11h.77a.11.11,0,0,0,.08,0,.12.12,0,0,0,0-.08V12.06l.71,1.09.06,0s.06,0,.12,0h.67A.11.11,0,0,0,13.31,13.21Z"/>
    <path d="M14.46,13.24a.21.21,0,0,0,.12,0l0-.07.1-.28h.92l.1.28a.23.23,0,0,0,0,.07.16.16,0,0,0,.11,0h.79a.08.08,0,0,0,.07,0,.14.14,0,0,0,0-.07v0l-1-2.71a.24.24,0,0,0-.06-.09.17.17,0,0,0-.13-.05h-.92a.17.17,0,0,0-.13.05.24.24,0,0,0-.06.09l-.95,2.71v0a.14.14,0,0,0,0,.07.1.1,0,0,0,.07,0Zm.72-2,.24.79h-.48Z"/>
    <path d="M17.9,13.24a.11.11,0,0,0,.08,0,.12.12,0,0,0,0-.08V12.06l.71,1.09.05,0a.17.17,0,0,0,.13,0h.67a.1.1,0,0,0,.11-.11V10.39a.11.11,0,0,0,0-.08.09.09,0,0,0-.08,0h-.77a.09.09,0,0,0-.08,0,.12.12,0,0,0,0,.08v1.16L18,10.37l-.05-.06a.17.17,0,0,0-.13,0h-.67a.09.09,0,0,0-.08,0,.11.11,0,0,0,0,.08v2.74a.1.1,0,0,0,.11.11Z"/>
    <path d="M21.28,11.13a.31.31,0,0,1,.22-.07.36.36,0,0,1,.19,0,.34.34,0,0,1,.13.19l.06.09a.13.13,0,0,0,.1,0h.86a.09.09,0,0,0,.07,0,.09.09,0,0,0,0-.06,1.09,1.09,0,0,0-.13-.5,1,1,0,0,0-.32-.34,1.71,1.71,0,0,0-.46-.19,2.24,2.24,0,0,0-.52-.06,2.05,2.05,0,0,0-.72.12,1.09,1.09,0,0,0-.71,1v.76a1.1,1.1,0,0,0,.21.65,1,1,0,0,0,.49.38,2,2,0,0,0,.73.12,2.24,2.24,0,0,0,.52-.06,1.73,1.73,0,0,0,.46-.2,1,1,0,0,0,.45-.83.09.09,0,0,0,0-.07l-.07,0H22c-.05,0-.08,0-.1,0a.14.14,0,0,0-.06.1.41.41,0,0,1-.12.18.42.42,0,0,1-.2.05.31.31,0,0,1-.22-.08.32.32,0,0,1-.09-.27c0-.24,0-.48,0-.71A.34.34,0,0,1,21.28,11.13Z"/>
    <path d="M25.57,11.1a.1.1,0,0,0,.11-.11v-.6a.11.11,0,0,0,0-.08.1.1,0,0,0-.08,0H23.39a.14.14,0,0,0-.12.12v2.74a.09.09,0,0,0,0,.08.11.11,0,0,0,.08,0H25.6a.1.1,0,0,0,.11-.11v-.6a.1.1,0,0,0-.11-.11H24.29v-.27h1.18a.09.09,0,0,0,.08,0,.08.08,0,0,0,0-.08v-.55a.09.09,0,0,0,0-.08.11.11,0,0,0-.08,0H24.29V11.1Z"/>
    <path d="M27.76,6H4.24A2.25,2.25,0,0,0,2,8.24v7.52A2.25,2.25,0,0,0,4.24,18H10a1,1,0,0,0,0-2H4.24A.24.24,0,0,1,4,15.76V8.24A.24.24,0,0,1,4.24,8H27.76a.24.24,0,0,1,.24.24v7.52a.24.24,0,0,1-.24.24H23a1,1,0,0,0-.23.05,5.23,5.23,0,0,0-1.45-1.27A5.5,5.5,0,1,0,18.5,25a5.29,5.29,0,0,0,2.77-1A1,1,0,0,0,22,23H30a2.25,2.25,0,0,0,2.25-2.25V8.24A2.25,2.25,0,0,0,30,6Z"/>
  </g>
</svg>
