<svg xmlns="http://www.w3.org/2000/svg" width="40" height="40" fill="#d8b200" xmlns:v="https://vecta.io/nano"><path d="M35.549 16.351H20.624c-1.132.001-2.217.452-3.018 1.252a4.27 4.27 0 0 0-1.252 3.018v8.109l-3.867 2.762a1.16 1.16 0 0 0 0 1.89l3.914 2.8c.152 1.012.662 1.935 1.437 2.603s1.764 1.036 2.787 1.037H35.55c1.132-.001 2.218-.452 3.018-1.252s1.251-1.886 1.252-3.018v-14.93c-.001-1.132-.451-2.218-1.252-3.019s-1.886-1.251-3.019-1.252zM30.53 32.668c-.274 0-.485-.087-.547-.323l-.473-1.654h-2.847l-.472 1.654c-.062.237-.274.323-.547.323-.435 0-1.02-.273-1.02-.671a.72.72 0 0 1 .025-.125l2.4-7.824a1.01 1.01 0 0 1 1.032-.548c.473 0 .933.174 1.045.548l2.4 7.824c.013.04.022.082.025.125-.001.387-.588.671-1.021.671zm-3.534-3.244h2.165l-1.083-3.818-1.082 3.818zm-12.965-8.802a6.56 6.56 0 0 1 1.453-4.123 6.23 6.23 0 0 1-3.567-1.117 6.23 6.23 0 0 1-3.568 1.119c-.174 0-.34-.069-.463-.192s-.192-.289-.192-.463.069-.34.192-.463.289-.192.463-.192a4.93 4.93 0 0 0 2.54-.7c-.921-.991-1.496-2.254-1.637-3.6h-.9c-.086 0-.171-.017-.251-.05s-.152-.081-.212-.142a.67.67 0 0 1-.142-.213c-.033-.08-.05-.165-.05-.251s.017-.171.05-.251.081-.152.142-.212.133-.109.212-.142.165-.05.251-.05h2.913V7.982c-.003-.088.011-.176.042-.258a.65.65 0 0 1 .14-.221c.061-.063.134-.114.216-.149a.65.65 0 0 1 .257-.052c.089 0 .175.018.257.052a.63.63 0 0 1 .215.149.66.66 0 0 1 .14.221.65.65 0 0 1 .042.258v1.59h2.91c.174 0 .34.069.463.192s.192.289.192.463-.069.34-.192.463-.289.192-.463.192h-.9c-.141 1.346-.716 2.609-1.637 3.6a4.92 4.92 0 0 0 2.54.7c.166 0 .325.063.446.176s.195.267.207.432a6.57 6.57 0 0 1 4.487-1.768h3.026v-2.76L27.52 8.5a1.16 1.16 0 0 0 0-1.89l-3.916-2.788a4.28 4.28 0 0 0-4.22-3.64H4.455C3.322.183 2.237.633 1.436 1.433A4.27 4.27 0 0 0 .184 4.452v14.93C.185 20.514.636 21.6 1.436 22.4s1.886 1.251 3.019 1.252h9.576v-3.03zm-2.116-6.953a4.95 4.95 0 0 0 1.346-2.782H10.57a4.95 4.95 0 0 0 1.345 2.782z"/></svg>