<svg xmlns="http://www.w3.org/2000/svg" width="36" height="36" fill="#ac1e2d" xmlns:v="https://vecta.io/nano"><path d="M6.945 13.072a4 4 0 0 1-2.829-6.828 4 4 0 0 1 6.828 2.829 4 4 0 0 1-4 4zm22.11 0a4 4 0 0 1-2.828-6.828 4 4 0 0 1 6.828 2.829 4 4 0 0 1-4 4zm-11.06-2.131c-.988 0-1.954-.293-2.775-.842a5 5 0 0 1-1.84-2.242c-.378-.913-.477-1.917-.284-2.886s.668-1.859 1.367-2.558a5 5 0 0 1 2.557-1.367c.968-.193 1.973-.094 2.886.284a4.99 4.99 0 0 1 2.242 1.84c.549.822.842 1.787.842 2.775a5 5 0 0 1-4.995 4.995z"/><path d="M18.996 11.042v6.892a1 1 0 1 1-2 0v-6.892a6.98 6.98 0 0 0-4.279 2.331c-1.1 1.266-1.708 2.885-1.713 4.561v5.992a1 1 0 0 0 1 1h2.238l.763 9.208a1 1 0 0 0 1 .915h4a1 1 0 0 0 1-.915l.763-9.208h2.238a1 1 0 0 0 1-1v-5.994a6.98 6.98 0 0 0-1.721-4.565c-1.104-1.265-2.627-2.091-4.289-2.325zM8.941 24.061v-5.994a8.87 8.87 0 0 1 1.053-4.132 5.93 5.93 0 0 0-3.051-.863 6 6 0 0 0-5.994 5.994v4.995a1 1 0 0 0 1 1h1.093l.907 9.089a1 1 0 0 0 .994.9h4a1 1 0 0 0 .994-.9l.738-7.382a3 3 0 0 1-1.26-1.101c-.307-.479-.47-1.036-.472-1.606h-.002zm26.107-4.995a6 6 0 0 0-5.994-5.994 5.93 5.93 0 0 0-3.051.863 8.87 8.87 0 0 1 1.053 4.132v5.994a3 3 0 0 1-.472 1.606 2.99 2.99 0 0 1-1.26 1.101l.738 7.382a1 1 0 0 0 .994.9h4a1 1 0 0 0 .994-.9l.909-9.09h1.094a1 1 0 0 0 1-1l-.005-4.994z"/></svg>