<svg xmlns="http://www.w3.org/2000/svg" width="34" height="36" fill="none" xmlns:v="https://vecta.io/nano"><path d="M26.59 21.235c1.641 0 3.226-.6 4.454-1.689s2.015-2.589 2.212-4.218-.21-3.274-1.143-4.624-2.329-2.311-3.923-2.702c-.024-1.657-.562-3.265-1.54-4.602s-2.348-2.337-3.92-2.861-3.268-.546-4.852-.063-2.98 1.447-3.993 2.758a6.7 6.7 0 0 0-6.34.562 6.7 6.7 0 0 0-3.009 5.608 6.59 6.59 0 0 0 .106 1.173A5.43 5.43 0 0 0 .74 16.557a5.43 5.43 0 0 0 5.393 4.678h4.795v6.046l-2.529-.059c-.417-.535-1.01-.905-1.674-1.044s-1.355-.041-1.953.28S3.71 27.3 3.46 27.93s-.269 1.329-.054 1.972.65 1.19 1.229 1.543 1.264.49 1.934.387 1.283-.44 1.729-.951.697-1.163.709-1.841l3.212-.006a1 1 0 0 0 .626-.959v-6.841h3.2v9.046a2.88 2.88 0 0 0-1.522 1.257c-.343.585-.469 1.273-.354 1.942s.462 1.276.981 1.713 1.176.677 1.854.677 1.335-.24 1.854-.677.866-1.044.981-1.713-.011-1.357-.354-1.942-.883-1.03-1.523-1.257v-9.046h3.2v6.84a1.1 1.1 0 0 0 .721.97H25a2.88 2.88 0 0 0 2.441 2.798 2.88 2.88 0 0 0 3.17-1.933 2.88 2.88 0 0 0-1.37-3.451 2.88 2.88 0 0 0-3.633.768h-2.534v-5.991h3.516zM6.133 29.948a.96.96 0 0 1-.886-.592.96.96 0 0 1 .208-1.045.96.96 0 0 1 1.045-.208.96.96 0 0 1 .592.886.96.96 0 0 1-.959.959zm10.868 4a.96.96 0 0 1-.886-.592.96.96 0 0 1 .208-1.045.96.96 0 0 1 1.045-.208.96.96 0 0 1 .592.886.96.96 0 0 1-.282.679.96.96 0 0 1-.679.28h.002zm10.867-5.913a.96.96 0 0 1 .886.592.96.96 0 0 1-.208 1.045.96.96 0 0 1-1.045.208.96.96 0 0 1-.592-.886.96.96 0 0 1 .959-.959z" fill="#007dac"/></svg>