<svg xmlns="http://www.w3.org/2000/svg" width="34" height="31" fill="none" xmlns:v="https://vecta.io/nano"><path d="M33.454 7.612c-.534-2.161-1.751-4.093-3.471-5.506C28.369.766 26.343.022 24.246 0c-1.563 0-3.095.432-4.427 1.249-1.131.695-2.122 1.597-2.92 2.658-.829-1.183-1.926-2.154-3.202-2.833S11.003.027 9.558 0a9.13 9.13 0 0 0-5.735 2.106C2.104 3.52.887 5.451.353 7.612a12.32 12.32 0 0 0 .214 6.626h5.116l1.848-3.7a.99.99 0 0 1 .886-.547.99.99 0 0 1 .885.547l3.357 6.714 3.357-6.714a.99.99 0 0 1 .886-.547.99.99 0 0 1 .886.547l1.848 3.7h6.9a.99.99 0 0 1 .991.991.99.99 0 0 1-.991.991h-7.51a.99.99 0 0 1-.886-.548L16.899 13.2l-3.357 6.714a.99.99 0 0 1-.885.547.99.99 0 0 1-.886-.547L8.417 13.2l-1.236 2.471a.99.99 0 0 1-.886.547H1.308A18.91 18.91 0 0 0 2.535 18.5c2.7 4.3 7.37 8.283 13.89 11.84a.99.99 0 0 0 .948 0c6.523-3.558 11.2-7.541 13.9-11.84 2.91-4.65 2.792-8.487 2.18-10.888z" fill="#008e42"/></svg>